<?xml version="1.0" encoding="UTF-8"?>
<svg width="257px" height="453px" viewBox="0 0 257 453" version="1.1" xmlns="http://www.w3.org/2000/svg" xmlns:xlink="http://www.w3.org/1999/xlink">
    <!-- Generator: Sketch 55.2 (78181) - https://sketchapp.com -->
    <title>payment-terminal@3x</title>
    <desc>Created with Sketch.</desc>
    <g id="Page-1" stroke="none" stroke-width="1" fill="none" fill-rule="evenodd">
        <g id="payment-terminal" fill-rule="nonzero">
            <path d="M239.419429,453 L17.5805713,453 C7.8707997,453 0,445.509967 0,436.269926 L0,16.7300739 C0,7.49003307 7.8707997,0 17.5805713,0 L239.419429,0 C249.1292,0 257,7.49003307 257,16.7300739 L257,436.269926 C257,445.508967 249.130251,453 239.419429,453 Z" id="Path" fill="#3B4F66"></path>
            <path d="M239.323019,0 L201,0 C211.18566,0 219.443019,7.81501725 219.443019,17.4550385 L219.443019,435.544961 C219.443019,445.184983 211.18566,453 201,453 L239.323019,453 C249.086038,453 257,445.509983 257,436.269963 L257,16.7310369 C257,7.49101654 249.087094,0 239.323019,0 Z" id="Path" fill="#2F455B"></path>
            <path d="M213.758514,202 L42.2414859,202 C39.3469183,202 37,198.099908 37,193.289737 L37,33.7102627 C37,28.9000916 39.3469183,25 42.2414859,25 L213.758514,25 C216.653082,25 219,28.9000916 219,33.7102627 L219,193.289737 C219,198.101652 216.653082,202 213.758514,202 Z" id="Path" fill="#00C6C8"></path>
            <path d="M214.955579,422 L41.0444211,422 C38.8108096,422 37,420.277049 37,418.15181 L37,234.84819 C37,232.722951 38.8108096,231 41.0444211,231 L214.955579,231 C217.18919,231 219,232.722951 219,234.84819 L219,418.15181 C219,420.277049 217.18919,422 214.955579,422 Z" id="Path" fill="#7A8593"></path>
            <g id="Group" transform="translate(57.000000, 251.000000)" fill="#E6E9ED">
                <path d="M17.9143657,16.154 L8.14117164,16.154 C3.67126119,16.154 0.0484029851,12.711 0.0484029851,8.463 C0.0484029851,4.215 3.67126119,0.772 8.14117164,0.772 L17.9143657,0.772 C22.3842761,0.772 26.0071346,4.215 26.0071346,8.463 C26.0081866,12.711 22.3853284,16.154 17.9143657,16.154 Z" id="Path"></path>
                <path d="M56.021194,16.154 L46.248,16.154 C41.7780896,16.154 38.1552313,12.711 38.1552313,8.463 C38.1552313,4.215 41.7780896,0.772 46.248,0.772 L56.021194,0.772 C60.4911045,0.772 64.1139627,4.215 64.1139627,8.463 C64.1139627,12.711 60.4911045,16.154 56.021194,16.154 Z" id="Path"></path>
                <path d="M94.1259179,16.154 L84.3537761,16.154 C79.8838657,16.154 76.2610075,12.711 76.2610075,8.463 C76.2610075,4.215 79.8838657,0.772 84.3537761,0.772 L94.1259179,0.772 C98.5958284,0.772 102.218687,4.215 102.218687,8.463 C102.219739,12.711 98.5968806,16.154 94.1259179,16.154 Z" id="Path"></path>
                <path d="M132.232746,16.154 L122.459552,16.154 C117.989642,16.154 114.366784,12.711 114.366784,8.463 C114.366784,4.215 117.989642,0.772 122.459552,0.772 L132.232746,0.772 C136.702657,0.772 140.325515,4.215 140.325515,8.463 C140.325515,12.711 136.702657,16.154 132.232746,16.154 Z" id="Path"></path>
                <path d="M17.9143657,43.586 L8.14117164,43.586 C3.67126119,43.586 0.0484029851,40.143 0.0484029851,35.895 C0.0484029851,31.647 3.67126119,28.204 8.14117164,28.204 L17.9143657,28.204 C22.3842761,28.204 26.0071346,31.647 26.0071346,35.895 C26.0081866,40.143 22.3853284,43.586 17.9143657,43.586 Z" id="Path"></path>
                <path d="M56.021194,43.586 L46.248,43.586 C41.7780896,43.586 38.1552313,40.143 38.1552313,35.895 C38.1552313,31.647 41.7780896,28.204 46.248,28.204 L56.021194,28.204 C60.4911045,28.204 64.1139627,31.647 64.1139627,35.895 C64.1139627,40.143 60.4911045,43.586 56.021194,43.586 Z" id="Path"></path>
                <path d="M94.1259179,43.586 L84.3537761,43.586 C79.8838657,43.586 76.2610075,40.143 76.2610075,35.895 C76.2610075,31.647 79.8838657,28.204 84.3537761,28.204 L94.1259179,28.204 C98.5958284,28.204 102.218687,31.647 102.218687,35.895 C102.219739,40.143 98.5968806,43.586 94.1259179,43.586 Z" id="Path"></path>
                <path d="M132.232746,43.586 L122.459552,43.586 C117.989642,43.586 114.366784,40.143 114.366784,35.895 C114.366784,31.647 117.989642,28.204 122.459552,28.204 L132.232746,28.204 C136.702657,28.204 140.325515,31.647 140.325515,35.895 C140.325515,40.143 136.702657,43.586 132.232746,43.586 Z" id="Path"></path>
                <path d="M17.9143657,69.906 L8.14117164,69.906 C3.67126119,69.906 0.0484029851,66.463 0.0484029851,62.215 C0.0484029851,57.967 3.67126119,54.524 8.14117164,54.524 L17.9143657,54.524 C22.3842761,54.524 26.0071343,57.967 26.0071343,62.215 C26.0071343,66.463 22.3853284,69.906 17.9143657,69.906 Z" id="Path"></path>
                <path d="M56.021194,69.906 L46.248,69.906 C41.7780896,69.906 38.1552313,66.463 38.1552313,62.215 C38.1552313,57.967 41.7780896,54.524 46.248,54.524 L56.021194,54.524 C60.4911045,54.524 64.1139627,57.967 64.1139627,62.215 C64.1139627,66.463 60.4911045,69.906 56.021194,69.906 Z" id="Path"></path>
                <path d="M94.1259179,69.906 L84.3537761,69.906 C79.8838657,69.906 76.2610075,66.463 76.2610075,62.215 C76.2610075,57.967 79.8838657,54.524 84.3537761,54.524 L94.1259179,54.524 C98.5958284,54.524 102.218687,57.967 102.218687,62.215 C102.218687,66.463 98.5968806,69.906 94.1259179,69.906 Z" id="Path"></path>
                <path d="M132.232746,69.906 L122.459552,69.906 C117.989642,69.906 114.366784,66.463 114.366784,62.215 C114.366784,57.967 117.989642,54.524 122.459552,54.524 L132.232746,54.524 C136.702657,54.524 140.325515,57.967 140.325515,62.215 C140.325515,66.463 136.702657,69.906 132.232746,69.906 Z" id="Path"></path>
                <path d="M17.9143657,98.193 L8.14117164,98.193 C3.67126119,98.193 0.0484029851,94.75 0.0484029851,90.502 C0.0484029851,86.254 3.67126119,82.811 8.14117164,82.811 L17.9143657,82.811 C22.3842761,82.811 26.0071346,86.254 26.0071346,90.502 C26.0081866,94.75 22.3853284,98.193 17.9143657,98.193 Z" id="Path"></path>
                <path d="M56.021194,98.193 L46.248,98.193 C41.7780896,98.193 38.1552313,94.75 38.1552313,90.502 C38.1552313,86.254 41.7780896,82.811 46.248,82.811 L56.021194,82.811 C60.4911045,82.811 64.1139627,86.254 64.1139627,90.502 C64.1139627,94.75 60.4911045,98.193 56.021194,98.193 Z" id="Path"></path>
                <path d="M94.1259179,98.193 L84.3537761,98.193 C79.8838657,98.193 76.2610075,94.75 76.2610075,90.502 C76.2610075,86.254 79.8838657,82.811 84.3537761,82.811 L94.1259179,82.811 C98.5958284,82.811 102.218687,86.254 102.218687,90.502 C102.219739,94.75 98.5968806,98.193 94.1259179,98.193 Z" id="Path"></path>
                <path d="M132.232746,98.193 L122.459552,98.193 C117.989642,98.193 114.366784,94.75 114.366784,90.502 C114.366784,86.254 117.989642,82.811 122.459552,82.811 L132.232746,82.811 C136.702657,82.811 140.325515,86.254 140.325515,90.502 C140.325515,94.75 136.702657,98.193 132.232746,98.193 Z" id="Path"></path>
                <path d="M17.9143657,125.625 L8.14117164,125.625 C3.67126119,125.625 0.0484029851,122.182 0.0484029851,117.934 C0.0484029851,113.686 3.67126119,110.243 8.14117164,110.243 L17.9143657,110.243 C22.3842761,110.243 26.0071346,113.686 26.0071346,117.934 C26.0081866,122.182 22.3853284,125.625 17.9143657,125.625 Z" id="Path"></path>
                <path d="M56.021194,125.625 L46.248,125.625 C41.7780896,125.625 38.1552313,122.182 38.1552313,117.934 C38.1552313,113.686 41.7780896,110.243 46.248,110.243 L56.021194,110.243 C60.4911045,110.243 64.1139627,113.686 64.1139627,117.934 C64.1139627,122.182 60.4911045,125.625 56.021194,125.625 Z" id="Path"></path>
                <path d="M94.1259179,125.625 L84.3537761,125.625 C79.8838657,125.625 76.2610075,122.182 76.2610075,117.934 C76.2610075,113.686 79.8838657,110.243 84.3537761,110.243 L94.1259179,110.243 C98.5958284,110.243 102.218687,113.686 102.218687,117.934 C102.219739,122.182 98.5968806,125.625 94.1259179,125.625 Z" id="Path"></path>
                <path d="M132.232746,125.625 L122.459552,125.625 C117.989642,125.625 114.366784,122.182 114.366784,117.934 C114.366784,113.686 117.989642,110.243 122.459552,110.243 L132.232746,110.243 C136.702657,110.243 140.325515,113.686 140.325515,117.934 C140.325515,122.182 136.702657,125.625 132.232746,125.625 Z" id="Path"></path>
            </g>
            <path d="M75.8943656,403 L66.1056344,403 C61.6286178,403 58,399.642504 58,395.5 C58,391.357496 61.6286178,388 66.1056344,388 L75.8943656,388 C80.3713822,388 84,391.357496 84,395.5 C84,399.642504 80.3724362,403 75.8943656,403 Z" id="Path" fill="#EA5D55"></path>
            <path d="M113.894366,403 L104.105634,403 C99.6286178,403 96,399.642504 96,395.5 C96,391.357496 99.6286178,388 104.105634,388 L113.894366,388 C118.371382,388 122,391.357496 122,395.5 C122,399.642504 118.371382,403 113.894366,403 Z" id="Path" fill="#E6E9ED"></path>
            <path d="M151.894037,403 L142.105963,403 C137.628765,403 134,399.642504 134,395.5 C134,391.357496 137.628765,388 142.105963,388 L151.894037,388 C156.371235,388 160,391.357496 160,395.5 C160,399.642504 156.372289,403 151.894037,403 Z" id="Path" fill="#77D057"></path>
            <path d="M189.894366,403 L180.105634,403 C175.628618,403 172,399.642504 172,395.5 C172,391.357496 175.628618,388 180.105634,388 L189.894366,388 C194.371382,388 198,391.357496 198,395.5 C198,399.642504 194.371382,403 189.894366,403 Z" id="Path" fill="#00C0F4"></path>
            <g id="Group" transform="translate(57.000000, 49.000000)" fill="#00AFAA">
                <rect id="Rectangle" x="0.0210619469" y="0.95" width="93.9573451" height="13.331"></rect>
                <rect id="Rectangle-Copy" x="0" y="54" width="119" height="13.331"></rect>
                <rect id="Rectangle" x="0.0210619469" y="27.61" width="46.9776195" height="13.331"></rect>
                <rect id="Rectangle-Copy-2" x="0" y="81" width="27.380531" height="13.331"></rect>
            </g>
        </g>
    </g>
</svg>